<?xml version="1.0" encoding="UTF-8"?>
<svg xmlns="http://www.w3.org/2000/svg" xmlns:xlink="http://www.w3.org/1999/xlink" width="401pt" height="472pt" viewBox="0 0 401 472" version="1.1">
<g id="surface1">
<path style=" stroke:none;fill-rule:evenodd;fill:rgb(12.156677%,10.594177%,12.547302%);fill-opacity:1;" d="M 0.351563 86.050781 L 400.925781 86.050781 L 400.925781 471.128906 L 0.351563 471.128906 L 0.351563 86.050781 "/>
<path style=" stroke:none;fill-rule:evenodd;fill:rgb(10.594177%,34.521484%,98.046875%);fill-opacity:1;" d="M 9.355469 94.707031 L 391.914063 94.707031 L 391.914063 471.128906 L 9.355469 471.128906 L 9.355469 94.707031 "/>
<path style=" stroke:none;fill-rule:evenodd;fill:rgb(100%,100%,24.31488%);fill-opacity:1;" d="M 308.972656 172.863281 C 336.097656 172.863281 364.796875 172.863281 391.917969 172.863281 C 391.917969 147.441406 391.917969 120.132813 391.917969 94.710938 C 285.488281 94.710938 177.484375 94.710938 71.050781 94.710938 C 44.363281 160.863281 50.117188 231.515625 117.890625 274.542969 C 153.195313 296.957031 214.480469 309.664063 267.777344 324.613281 C 311.195313 336.789063 329.78125 351.027344 317.359375 376.117188 C 340.941406 376.117188 368.304688 376.71875 391.890625 376.71875 C 391.890625 329.421875 391.890625 284.34375 391.890625 237.046875 C 353.347656 219.949219 314.9375 211.125 277.734375 201.59375 C 253.839844 195.472656 217.902344 187.21875 205.605469 168.863281 C 188.308594 143.042969 219.542969 129.011719 242.585938 129.039063 C 251.574219 129.046875 262.496094 129.46875 273.652344 131.976563 C 298.636719 137.601563 306.265625 146.859375 308.972656 172.863281 "/>
<path style=" stroke:none;fill-rule:evenodd;fill:rgb(96.09375%,22.363281%,21.556091%);fill-opacity:1;" d="M 56.238281 334.875 L 201.230469 334.875 L 201.230469 376.332031 L 56.238281 376.332031 L 56.238281 334.875 "/>
<path style=" stroke:none;fill-rule:evenodd;fill:rgb(12.156677%,10.594177%,12.547302%);fill-opacity:1;" d="M 0.351563 0.980469 L 400.925781 0.980469 L 400.925781 93.679688 L 0.351563 93.679688 L 0.351563 0.980469 "/>
<path style=" stroke:none;fill-rule:nonzero;fill:rgb(99.609375%,99.609375%,99.609375%);fill-opacity:1;" d="M 146.722656 81.261719 L 146.722656 73.347656 C 160.921875 73.347656 172.480469 62.105469 172.480469 48.3125 C 172.480469 34.519531 160.921875 23.28125 146.722656 23.28125 L 146.722656 15.367188 C 171.105469 15.367188 190.980469 30.15625 190.980469 48.3125 C 190.980469 66.46875 171.105469 81.261719 146.722656 81.261719 Z M 279.183594 78.671875 L 267.027344 78.746094 L 221.039063 36.996094 L 221.039063 68.242188 C 221.074219 69.761719 221.5 71.941406 223.578125 71.941406 L 233.023438 71.941406 L 233.023438 78.597656 L 199.546875 78.597656 L 199.546875 71.792969 L 207.261719 71.792969 C 209.660156 71.867188 209.660156 70.242188 209.695313 69.09375 L 209.695313 30.488281 C 209.660156 29.382813 209.660156 27.753906 207.261719 27.789063 L 199.546875 27.789063 L 199.546875 21.023438 L 228.792969 21.023438 L 267.203125 56.375 L 267.203125 31.488281 C 267.167969 29.972656 266.746094 27.789063 264.664063 27.789063 L 256.421875 27.789063 L 256.421875 21.171875 L 289.96875 21.171875 L 289.96875 27.9375 L 281.652344 27.9375 C 279.253906 27.863281 279.253906 29.527344 279.21875 30.636719 Z M 359.671875 31.414063 C 361.046875 29.898438 360.726563 28.492188 359.320313 28.492188 L 354.984375 28.492188 L 354.984375 21.171875 L 387.015625 21.171875 L 387.015625 28.640625 L 378.523438 28.640625 C 376.164063 28.566406 374.929688 30.488281 374.1875 31.339844 L 351.671875 57.558594 L 351.707031 68.429688 C 351.742188 69.945313 352.164063 72.128906 354.28125 72.128906 L 363.617188 72.128906 L 363.617188 78.78125 L 323.585938 78.78125 L 323.585938 71.980469 L 331.304688 71.980469 C 333.699219 72.054688 333.699219 70.425781 333.734375 69.277344 L 333.734375 57.484375 L 310.441406 31.007813 C 309.738281 30.15625 308.222656 28.234375 306.320313 28.308594 L 297.15625 28.308594 L 297.15625 21.171875 L 337.964844 21.171875 L 337.964844 28.566406 L 333.664063 28.566406 C 332.042969 28.566406 330.8125 29.863281 331.972656 31.117188 L 346.492188 47.054688 Z M 79.945313 37.847656 L 86.570313 37.847656 L 86.570313 18.027344 L 79.027344 18.027344 C 79.203125 19.730469 78.851563 22.023438 75.503906 20.578125 C 66.835938 17.585938 57.742188 14.847656 48.652344 15.070313 C 34.097656 15.070313 15.351563 18.730469 14.257813 34.445313 C 14.257813 34.519531 14.257813 34.59375 14.257813 34.667969 L 14.257813 35.519531 C 14.503906 44.910156 22.75 50.976563 37.867188 53.675781 L 60.140625 56.523438 C 65.671875 57.226563 74.691406 57.484375 74.691406 63.289063 C 74.339844 70.316406 62.921875 72.679688 54.996094 72.496094 C 36.421875 71.867188 24.757813 66.023438 23.5625 55.375 L 15.070313 55.375 L 15.070313 78.152344 L 24.652344 78.152344 C 24.757813 75.308594 25.21875 73.605469 28.035156 74.34375 C 36.386719 78.597656 44.738281 80.300781 53.515625 80.703125 C 76.773438 81.261719 90.164063 71.941406 90.902344 59.480469 C 90.796875 46.835938 77.898438 42.324219 65.109375 40.105469 C 52.5625 37.589844 30.328125 38.550781 30.328125 31.636719 C 30.292969 27.53125 38.183594 23.28125 49.601563 22.984375 C 60.808594 22.945313 76.171875 26.570313 79.945313 37.847656 Z M 146.722656 15.367188 L 146.722656 23.28125 C 132.554688 23.28125 120.960938 34.519531 120.960938 48.3125 C 120.960938 62.105469 132.554688 73.347656 146.722656 73.347656 L 146.722656 81.261719 C 122.371094 81.261719 102.496094 66.46875 102.496094 48.3125 C 102.496094 30.15625 122.371094 15.367188 146.722656 15.367188 "/>
<path style=" stroke:none;fill-rule:evenodd;fill:rgb(12.156677%,10.594177%,12.547302%);fill-opacity:1;" d="M 0.351563 374.550781 L 400.925781 374.550781 L 400.925781 471.128906 L 0.351563 471.128906 L 0.351563 374.550781 "/>
<path style=" stroke:none;fill-rule:evenodd;fill:rgb(100%,100%,24.31488%);fill-opacity:1;" d="M 106.449219 408.042969 C 111.0625 403.519531 115.671875 398.988281 120.285156 394.460938 C 106.941406 388.976563 65.933594 384.097656 38.472656 396.117188 C 12.394531 407.527344 30.097656 426.894531 56.058594 426.847656 C 64.710938 426.832031 73.941406 427.007813 77.382813 430.515625 C 85.714844 439 59.535156 444.308594 34.734375 433.050781 C 30.800781 439.097656 26.867188 445.152344 22.929688 451.199219 C 58.308594 464.890625 129.40625 452.292969 122.9375 430.753906 C 118.808594 416.988281 98.304688 417.148438 86.648438 415.152344 C 54.121094 408.855469 85.5 397.105469 106.449219 408.042969 Z M 276.414063 388.878906 L 228.179688 389.007813 L 272.351563 420.738281 L 222.722656 455.773438 L 272.351563 455.773438 L 300.65625 434.195313 L 328.964844 455.644531 L 378.339844 455.644531 L 329.851563 421.121094 L 375.421875 388.625 L 326.425781 388.625 L 302.054688 409.1875 Z M 149.738281 389.703125 L 193.152344 389.703125 L 193.152344 456.46875 L 149.738281 456.46875 L 149.738281 389.703125 "/>
</g>
</svg>
